<svg width="28" height="28" viewBox="0 0 28 28" fill="none" xmlns="http://www.w3.org/2000/svg">
<path d="M27.7276 11.258H26.5999V11.1999H13.9999V16.7999H21.912C20.7577 20.0598 17.656 22.3999 13.9999 22.3999C9.36105 22.3999 5.59997 18.6388 5.59997 13.9999C5.59997 9.36105 9.36105 5.59997 13.9999 5.59997C16.1412 5.59997 18.0893 6.40777 19.5726 7.72726L23.5325 3.76738C21.0321 1.43709 17.6875 0 13.9999 0C6.26847 0 0 6.26847 0 13.9999C0 21.7314 6.26847 27.9999 13.9999 27.9999C21.7314 27.9999 27.9999 21.7314 27.9999 13.9999C27.9999 13.0612 27.9033 12.1449 27.7276 11.258Z" fill="#FFC107"/>
<path d="M1.61414 7.48366L6.21381 10.8569C7.45841 7.77556 10.4726 5.59997 13.9999 5.59997C16.1412 5.59997 18.0893 6.40777 19.5726 7.72726L23.5324 3.76738C21.032 1.43709 17.6875 0 13.9999 0C8.6225 0 3.95912 3.03588 1.61414 7.48366Z" fill="#FF3D00"/>
<path d="M13.9998 28C17.616 28 20.9018 26.6161 23.386 24.3657L19.0531 20.6991C17.6002 21.8039 15.825 22.4015 13.9998 22.4001C10.3584 22.4001 7.26652 20.0782 6.10172 16.8379L1.53635 20.3554C3.85334 24.8892 8.55871 28 13.9998 28Z" fill="#4CAF50"/>
<path d="M27.7275 11.2573H26.5998V11.1992H13.9998V16.7992H21.9119C21.3598 18.3507 20.3652 19.7064 19.051 20.6989L19.0531 20.6975L23.3861 24.3641C23.0795 24.6427 27.9998 20.9992 27.9998 13.9992C27.9998 13.0605 27.9032 12.1442 27.7275 11.2573Z" fill="#1976D2"/>
</svg>
